{
    "asset" : {
        "generator" : "Khronos glTF Blender I/O v3.3.32",
        "version" : "2.0"
    },
    "scene" : 0,
    "scenes" : [
        {
            "name" : "Scene",
            "nodes" : [
                0
            ]
        }
    ],
    "nodes" : [
        {
            "mesh" : 0,
            "name" : "Bus_hera_satellite_assy_08_outer_shape_20220225.001",
            "rotation" : [
                0.7071068286895752,
                0,
                0,
                0.7071067094802856
            ]
        }
    ],
    "materials" : [
        {
            "doubleSided" : true,
            "name" : "Default OBJ",
            "pbrMetallicRoughness" : {
                "baseColorFactor" : [
                    0.800000011920929,
                    0.800000011920929,
                    0.800000011920929,
                    1
                ],
                "metallicFactor" : 0,
                "roughnessFactor" : 0.5
            }
        }
    ],
    "meshes" : [
        {
            "name" : "Bus_hera_satellite_assy_08_outer_shape_20220225.001",
            "primitives" : [
                {
                    "attributes" : {
                        "POSITION" : 0,
                        "NORMAL" : 1,
                        "TEXCOORD_0" : 2
                    },
                    "indices" : 3,
                    "material" : 0
                }
            ]
        }
    ],
    "accessors" : [
        {
            "bufferView" : 0,
            "componentType" : 5126,
            "count" : 91032,
            "max" : [
                1.0768840312957764,
                0.8714150190353394,
                -0.05999999865889549
            ],
            "min" : [
                -0.9338840246200562,
                -0.8714150190353394,
                -1.7891769409179688
            ],
            "type" : "VEC3"
        },
        {
            "bufferView" : 1,
            "componentType" : 5126,
            "count" : 91032,
            "type" : "VEC3"
        },
        {
            "bufferView" : 2,
            "componentType" : 5126,
            "count" : 91032,
            "type" : "VEC2"
        },
        {
            "bufferView" : 3,
            "componentType" : 5125,
            "count" : 169137,
            "type" : "SCALAR"
        }
    ],
    "bufferViews" : [
        {
            "buffer" : 0,
            "byteLength" : 1092384,
            "byteOffset" : 0,
            "target" : 34962
        },
        {
            "buffer" : 0,
            "byteLength" : 1092384,
            "byteOffset" : 1092384,
            "target" : 34962
        },
        {
            "buffer" : 0,
            "byteLength" : 728256,
            "byteOffset" : 2184768,
            "target" : 34962
        },
        {
            "buffer" : 0,
            "byteLength" : 676548,
            "byteOffset" : 2913024,
            "target" : 34963
        }
    ],
    "buffers" : [
        {
            "byteLength" : 3589572,
            "uri" : "hera_sc_bus_v01.bin"
        }
    ]
}
