{
    "asset" : {
        "generator" : "Khronos glTF Blender I/O v3.3.32",
        "version" : "2.0"
    },
    "scene" : 0,
    "scenes" : [
        {
            "name" : "Scene",
            "nodes" : [
                0
            ]
        }
    ],
    "nodes" : [
        {
            "mesh" : 0,
            "name" : "TIRI_hera_satellite_assy_08_outer_shape_20220225.002",
            "rotation" : [
                0.7071068286895752,
                0,
                0,
                0.7071067094802856
            ]
        }
    ],
    "meshes" : [
        {
            "name" : "TIRI_hera_satellite_assy_08_outer_shape_20220225.001",
            "primitives" : [
                {
                    "attributes" : {
                        "POSITION" : 0,
                        "NORMAL" : 1
                    },
                    "indices" : 2
                }
            ]
        }
    ],
    "accessors" : [
        {
            "bufferView" : 0,
            "componentType" : 5126,
            "count" : 69554,
            "max" : [
                0.08887600153684616,
                0.15454000234603882,
                0.18613100051879883
            ],
            "min" : [
                -0.09992299973964691,
                -0.07425899803638458,
                -0.06266900151968002
            ],
            "type" : "VEC3"
        },
        {
            "bufferView" : 1,
            "componentType" : 5126,
            "count" : 69554,
            "type" : "VEC3"
        },
        {
            "bufferView" : 2,
            "componentType" : 5125,
            "count" : 81942,
            "type" : "SCALAR"
        }
    ],
    "bufferViews" : [
        {
            "buffer" : 0,
            "byteLength" : 834648,
            "byteOffset" : 0,
            "target" : 34962
        },
        {
            "buffer" : 0,
            "byteLength" : 834648,
            "byteOffset" : 834648,
            "target" : 34962
        },
        {
            "buffer" : 0,
            "byteLength" : 327768,
            "byteOffset" : 1669296,
            "target" : 34963
        }
    ],
    "buffers" : [
        {
            "byteLength" : 1997064,
            "uri" : "hera_sc_tiri_v01.bin"
        }
    ]
}
