{
    "asset" : {
        "generator" : "Khronos glTF Blender I/O v3.3.32",
        "version" : "2.0"
    },
    "scene" : 0,
    "scenes" : [
        {
            "name" : "Scene",
            "nodes" : [
                0
            ]
        }
    ],
    "nodes" : [
        {
            "mesh" : 0,
            "name" : "SAPY_Cube.010",
            "rotation" : [
                0.7071068286895752,
                0,
                0,
                0.7071067094802856
            ]
        }
    ],
    "meshes" : [
        {
            "name" : "SAPY_Cube.001",
            "primitives" : [
                {
                    "attributes" : {
                        "POSITION" : 0,
                        "NORMAL" : 1,
                        "TEXCOORD_0" : 2
                    },
                    "indices" : 3
                }
            ]
        }
    ],
    "accessors" : [
        {
            "bufferView" : 0,
            "componentType" : 5126,
            "count" : 146760,
            "max" : [
                0.07201699912548065,
                0.04038200154900551,
                0.8921849727630615
            ],
            "min" : [
                -0.05623999983072281,
                -4.9086151123046875,
                -0.8878139853477478
            ],
            "type" : "VEC3"
        },
        {
            "bufferView" : 1,
            "componentType" : 5126,
            "count" : 146760,
            "type" : "VEC3"
        },
        {
            "bufferView" : 2,
            "componentType" : 5126,
            "count" : 146760,
            "type" : "VEC2"
        },
        {
            "bufferView" : 3,
            "componentType" : 5125,
            "count" : 173529,
            "type" : "SCALAR"
        }
    ],
    "bufferViews" : [
        {
            "buffer" : 0,
            "byteLength" : 1761120,
            "byteOffset" : 0,
            "target" : 34962
        },
        {
            "buffer" : 0,
            "byteLength" : 1761120,
            "byteOffset" : 1761120,
            "target" : 34962
        },
        {
            "buffer" : 0,
            "byteLength" : 1174080,
            "byteOffset" : 3522240,
            "target" : 34962
        },
        {
            "buffer" : 0,
            "byteLength" : 694116,
            "byteOffset" : 4696320,
            "target" : 34963
        }
    ],
    "buffers" : [
        {
            "byteLength" : 5390436,
            "uri" : "hera_sc_sapy_v01.bin"
        }
    ]
}
