{
    "asset" : {
        "generator" : "Khronos glTF Blender I/O v3.3.32",
        "version" : "2.0"
    },
    "scene" : 0,
    "scenes" : [
        {
            "name" : "Scene",
            "nodes" : [
                0
            ]
        }
    ],
    "nodes" : [
        {
            "mesh" : 0,
            "name" : "SMC_hera_satellite_assy_08_outer_shape_20220225.008",
            "rotation" : [
                0.7071068286895752,
                0,
                0,
                0.7071067094802856
            ]
        }
    ],
    "meshes" : [
        {
            "name" : "SMC_hera_satellite_assy_08_outer_shape_20220225.001",
            "primitives" : [
                {
                    "attributes" : {
                        "POSITION" : 0,
                        "NORMAL" : 1
                    },
                    "indices" : 2
                }
            ]
        }
    ],
    "accessors" : [
        {
            "bufferView" : 0,
            "componentType" : 5126,
            "count" : 32316,
            "max" : [
                0.05642800033092499,
                0.035335998982191086,
                0.0376570001244545
            ],
            "min" : [
                -0.042360998690128326,
                -0.07076700031757355,
                -0.07960899919271469
            ],
            "type" : "VEC3"
        },
        {
            "bufferView" : 1,
            "componentType" : 5126,
            "count" : 32316,
            "type" : "VEC3"
        },
        {
            "bufferView" : 2,
            "componentType" : 5123,
            "count" : 32316,
            "type" : "SCALAR"
        }
    ],
    "bufferViews" : [
        {
            "buffer" : 0,
            "byteLength" : 387792,
            "byteOffset" : 0,
            "target" : 34962
        },
        {
            "buffer" : 0,
            "byteLength" : 387792,
            "byteOffset" : 387792,
            "target" : 34962
        },
        {
            "buffer" : 0,
            "byteLength" : 64632,
            "byteOffset" : 775584,
            "target" : 34963
        }
    ],
    "buffers" : [
        {
            "byteLength" : 840216,
            "uri" : "hera_sc_smc_v01.bin"
        }
    ]
}
