{
    "asset" : {
        "generator" : "Khronos glTF Blender I/O v3.3.32",
        "version" : "2.0"
    },
    "scene" : 0,
    "scenes" : [
        {
            "name" : "Scene",
            "nodes" : [
                0
            ]
        }
    ],
    "nodes" : [
        {
            "mesh" : 0,
            "name" : "HGA_hera_satellite_assy_08_outer_shape_20220225.011",
            "rotation" : [
                0.7071068286895752,
                0,
                0,
                0.7071067094802856
            ]
        }
    ],
    "meshes" : [
        {
            "name" : "HGA_hera_satellite_assy_08_outer_shape_20220225.001",
            "primitives" : [
                {
                    "attributes" : {
                        "POSITION" : 0,
                        "NORMAL" : 1
                    },
                    "indices" : 2
                }
            ]
        }
    ],
    "accessors" : [
        {
            "bufferView" : 0,
            "componentType" : 5126,
            "count" : 56986,
            "max" : [
                0.1071000024676323,
                0.5843240022659302,
                0.5863190293312073
            ],
            "min" : [
                -0.2798610031604767,
                -0.5843240022659302,
                -0.5824049711227417
            ],
            "type" : "VEC3"
        },
        {
            "bufferView" : 1,
            "componentType" : 5126,
            "count" : 56986,
            "type" : "VEC3"
        },
        {
            "bufferView" : 2,
            "componentType" : 5123,
            "count" : 57330,
            "type" : "SCALAR"
        }
    ],
    "bufferViews" : [
        {
            "buffer" : 0,
            "byteLength" : 683832,
            "byteOffset" : 0,
            "target" : 34962
        },
        {
            "buffer" : 0,
            "byteLength" : 683832,
            "byteOffset" : 683832,
            "target" : 34962
        },
        {
            "buffer" : 0,
            "byteLength" : 114660,
            "byteOffset" : 1367664,
            "target" : 34963
        }
    ],
    "buffers" : [
        {
            "byteLength" : 1482324,
            "uri" : "hera_sc_hga_v01.bin"
        }
    ]
}
