{
    "asset" : {
        "generator" : "Khronos glTF Blender I/O v3.3.32",
        "version" : "2.0"
    },
    "scene" : 0,
    "scenes" : [
        {
            "name" : "Scene",
            "nodes" : [
                0
            ]
        }
    ],
    "nodes" : [
        {
            "mesh" : 0,
            "name" : "hera_satellite_assy_08_outer_shape_20220225.012_hera_satellite_",
            "rotation" : [
                0.7071068286895752,
                0,
                0,
                0.7071067094802856
            ]
        }
    ],
    "meshes" : [
        {
            "name" : "hera_satellite_assy_08_outer_shape_20220225.012_hera_satell",
            "primitives" : [
                {
                    "attributes" : {
                        "POSITION" : 0,
                        "NORMAL" : 1
                    },
                    "indices" : 2
                }
            ]
        }
    ],
    "accessors" : [
        {
            "bufferView" : 0,
            "componentType" : 5126,
            "count" : 77065,
            "max" : [
                0.9090660214424133,
                0.7596039772033691,
                -0.267657995223999
            ],
            "min" : [
                -0.9090690016746521,
                -0.7595170140266418,
                -1.6721869707107544
            ],
            "type" : "VEC3"
        },
        {
            "bufferView" : 1,
            "componentType" : 5126,
            "count" : 77065,
            "type" : "VEC3"
        },
        {
            "bufferView" : 2,
            "componentType" : 5125,
            "count" : 109680,
            "type" : "SCALAR"
        }
    ],
    "bufferViews" : [
        {
            "buffer" : 0,
            "byteLength" : 924780,
            "byteOffset" : 0,
            "target" : 34962
        },
        {
            "buffer" : 0,
            "byteLength" : 924780,
            "byteOffset" : 924780,
            "target" : 34962
        },
        {
            "buffer" : 0,
            "byteLength" : 438720,
            "byteOffset" : 1849560,
            "target" : 34963
        }
    ],
    "buffers" : [
        {
            "byteLength" : 2288280,
            "uri" : "hera_sc_thrusters_v01.bin"
        }
    ]
}
