{
    "asset" : {
        "generator" : "Khronos glTF Blender I/O v3.3.32",
        "version" : "2.0"
    },
    "scene" : 0,
    "scenes" : [
        {
            "name" : "Scene",
            "nodes" : [
                0
            ]
        }
    ],
    "nodes" : [
        {
            "mesh" : 0,
            "name" : "PALT_hera_satellite_assy_08_outer_shape_20220225.006",
            "rotation" : [
                0.7071068286895752,
                0,
                0,
                0.7071067094802856
            ]
        }
    ],
    "meshes" : [
        {
            "name" : "PALT_hera_satellite_assy_08_outer_shape_20220225.001",
            "primitives" : [
                {
                    "attributes" : {
                        "POSITION" : 0,
                        "NORMAL" : 1
                    },
                    "indices" : 2
                }
            ]
        }
    ],
    "accessors" : [
        {
            "bufferView" : 0,
            "componentType" : 5126,
            "count" : 67925,
            "max" : [
                0.08868200331926346,
                0.0920720025897026,
                0.10663799941539764
            ],
            "min" : [
                -0.12781700491905212,
                -0.10592799633741379,
                -0.2540619969367981
            ],
            "type" : "VEC3"
        },
        {
            "bufferView" : 1,
            "componentType" : 5126,
            "count" : 67925,
            "type" : "VEC3"
        },
        {
            "bufferView" : 2,
            "componentType" : 5125,
            "count" : 83286,
            "type" : "SCALAR"
        }
    ],
    "bufferViews" : [
        {
            "buffer" : 0,
            "byteLength" : 815100,
            "byteOffset" : 0,
            "target" : 34962
        },
        {
            "buffer" : 0,
            "byteLength" : 815100,
            "byteOffset" : 815100,
            "target" : 34962
        },
        {
            "buffer" : 0,
            "byteLength" : 333144,
            "byteOffset" : 1630200,
            "target" : 34963
        }
    ],
    "buffers" : [
        {
            "byteLength" : 1963344,
            "uri" : "hera_sc_palt_v01.bin"
        }
    ]
}
