{
    "asset" : {
        "generator" : "Khronos glTF Blender I/O v3.3.32",
        "version" : "2.0"
    },
    "scene" : 0,
    "scenes" : [
        {
            "name" : "Scene",
            "nodes" : [
                0
            ]
        }
    ],
    "nodes" : [
        {
            "mesh" : 0,
            "name" : "HSH_hera_satellite_assy_08_outer_shape_20220225.007",
            "rotation" : [
                0.7071068286895752,
                0,
                0,
                0.7071067094802856
            ]
        }
    ],
    "meshes" : [
        {
            "name" : "HSH_hera_satellite_assy_08_outer_shape_20220225.001",
            "primitives" : [
                {
                    "attributes" : {
                        "POSITION" : 0,
                        "NORMAL" : 1
                    },
                    "indices" : 2
                }
            ]
        }
    ],
    "accessors" : [
        {
            "bufferView" : 0,
            "componentType" : 5126,
            "count" : 50428,
            "max" : [
                0.17696300148963928,
                0.0830560028553009,
                0.08248600363731384
            ],
            "min" : [
                -0.06103700026869774,
                -0.1069440022110939,
                -0.18051399290561676
            ],
            "type" : "VEC3"
        },
        {
            "bufferView" : 1,
            "componentType" : 5126,
            "count" : 50428,
            "type" : "VEC3"
        },
        {
            "bufferView" : 2,
            "componentType" : 5123,
            "count" : 60414,
            "type" : "SCALAR"
        }
    ],
    "bufferViews" : [
        {
            "buffer" : 0,
            "byteLength" : 605136,
            "byteOffset" : 0,
            "target" : 34962
        },
        {
            "buffer" : 0,
            "byteLength" : 605136,
            "byteOffset" : 605136,
            "target" : 34962
        },
        {
            "buffer" : 0,
            "byteLength" : 120828,
            "byteOffset" : 1210272,
            "target" : 34963
        }
    ],
    "buffers" : [
        {
            "byteLength" : 1331100,
            "uri" : "hera_sc_hsh_v01.bin"
        }
    ]
}
