{
    "asset" : {
        "generator" : "Khronos glTF Blender I/O v3.3.32",
        "version" : "2.0"
    },
    "scene" : 0,
    "scenes" : [
        {
            "name" : "Scene",
            "nodes" : [
                0
            ]
        }
    ],
    "nodes" : [
        {
            "mesh" : 0,
            "name" : "AFC1_hera_satellite_assy_08_outer_shape_20220225.001",
            "rotation" : [
                0.7071068286895752,
                0,
                0,
                0.7071067094802856
            ]
        }
    ],
    "meshes" : [
        {
            "name" : "AFC1_hera_satellite_assy_08_outer_shape_20220225.002",
            "primitives" : [
                {
                    "attributes" : {
                        "POSITION" : 0,
                        "NORMAL" : 1
                    },
                    "indices" : 2
                }
            ]
        }
    ],
    "accessors" : [
        {
            "bufferView" : 0,
            "componentType" : 5126,
            "count" : 44503,
            "max" : [
                0.07268299907445908,
                0.07302699983119965,
                0.16152900457382202
            ],
            "min" : [
                -0.07327800244092941,
                -0.07293400168418884,
                -0.10402099788188934
            ],
            "type" : "VEC3"
        },
        {
            "bufferView" : 1,
            "componentType" : 5126,
            "count" : 44503,
            "type" : "VEC3"
        },
        {
            "bufferView" : 2,
            "componentType" : 5123,
            "count" : 49386,
            "type" : "SCALAR"
        }
    ],
    "bufferViews" : [
        {
            "buffer" : 0,
            "byteLength" : 534036,
            "byteOffset" : 0,
            "target" : 34962
        },
        {
            "buffer" : 0,
            "byteLength" : 534036,
            "byteOffset" : 534036,
            "target" : 34962
        },
        {
            "buffer" : 0,
            "byteLength" : 98772,
            "byteOffset" : 1068072,
            "target" : 34963
        }
    ],
    "buffers" : [
        {
            "byteLength" : 1166844,
            "uri" : "hera_sc_afc_v01.bin"
        }
    ]
}
